<svg width="21" height="20" viewBox="0 0 21 20" fill="none" xmlns="http://www.w3.org/2000/svg">
<path d="M1 0.380001C0.585786 0.380001 0.25 0.715788 0.25 1.13C0.25 1.54421 0.585786 1.88 1 1.88V1.13V0.380001ZM3.29254 1.13L4.01356 0.923532C3.92142 0.601769 3.62723 0.380001 3.29254 0.380001V1.13ZM7.01791 14.1396L6.29689 14.346C6.39813 14.6996 6.74076 14.9276 7.10596 14.8844L7.01791 14.1396ZM18.4806 12.7844L18.5686 13.5292C18.8861 13.4917 19.1449 13.257 19.2133 12.9447L18.4806 12.7844ZM20.2 4.92446L20.9327 5.08474C20.9812 4.86293 20.9266 4.63108 20.7843 4.4542C20.6419 4.27732 20.4271 4.17446 20.2 4.17446V4.92446ZM4.3791 4.92446L3.65808 5.13093L4.3791 4.92446ZM1 1.13V1.88H3.29254V1.13V0.380001H1V1.13ZM7.01791 14.1396L7.10596 14.8844L18.5686 13.5292L18.4806 12.7844L18.3925 12.0396L6.92985 13.3948L7.01791 14.1396ZM18.4806 12.7844L19.2133 12.9447L20.9327 5.08474L20.2 4.92446L19.4673 4.76418L17.7479 12.6241L18.4806 12.7844ZM3.29254 1.13L2.57152 1.33647L3.65808 5.13093L4.3791 4.92446L5.10012 4.71799L4.01356 0.923532L3.29254 1.13ZM4.3791 4.92446L3.65808 5.13093L6.29689 14.346L7.01791 14.1396L7.73893 13.9331L5.10012 4.71799L4.3791 4.92446ZM20.2 4.92446V4.17446H4.3791V4.92446V5.67446H20.2V4.92446ZM10.6 17.6882H9.85C9.85 18.0187 9.55415 18.3569 9.1 18.3569V19.1069V19.8569C10.3027 19.8569 11.35 18.9248 11.35 17.6882H10.6ZM9.1 19.1069V18.3569C8.64585 18.3569 8.35 18.0187 8.35 17.6882H7.6H6.85C6.85 18.9248 7.89729 19.8569 9.1 19.8569V19.1069ZM7.6 17.6882H8.35C8.35 17.3578 8.64585 17.0195 9.1 17.0195V16.2695V15.5195C7.89729 15.5195 6.85 16.4517 6.85 17.6882H7.6ZM9.1 16.2695V17.0195C9.55415 17.0195 9.85 17.3578 9.85 17.6882H10.6H11.35C11.35 16.4517 10.3027 15.5195 9.1 15.5195V16.2695ZM18.6 17.6882H17.85C17.85 18.0187 17.5541 18.3569 17.1 18.3569V19.1069V19.8569C18.3027 19.8569 19.35 18.9248 19.35 17.6882H18.6ZM17.1 19.1069V18.3569C16.6459 18.3569 16.35 18.0187 16.35 17.6882H15.6H14.85C14.85 18.9248 15.8973 19.8569 17.1 19.8569V19.1069ZM15.6 17.6882H16.35C16.35 17.3578 16.6459 17.0195 17.1 17.0195V16.2695V15.5195C15.8973 15.5195 14.85 16.4517 14.85 17.6882H15.6ZM17.1 16.2695V17.0195C17.5541 17.0195 17.85 17.3578 17.85 17.6882H18.6H19.35C19.35 16.4517 18.3027 15.5195 17.1 15.5195V16.2695Z" fill="black"/>
</svg>
